<svg width="24" height="26" viewBox="0 0 24 26" fill="none" xmlns="http://www.w3.org/2000/svg">
<path fill-rule="evenodd" clip-rule="evenodd" d="M13.3465 2C16.0195 2 16.4089 2.0143 17.5353 2.066C18.7057 2.1199 19.5054 2.3058 20.205 2.5775C20.9392 2.85346 21.6045 3.28629 22.1542 3.8458C22.7137 4.39555 23.1465 5.06075 23.4225 5.795C23.6942 6.4946 23.8801 7.2943 23.934 8.4647C23.9868 9.6384 24 10.0124 24 13V13.088C24 15.9953 23.9868 16.3737 23.934 17.5353C23.8801 18.7057 23.6942 19.5054 23.4225 20.205C23.1465 20.9392 22.7137 21.6045 22.1542 22.1542C21.6045 22.7137 20.9392 23.1465 20.205 23.4225C19.5054 23.6942 18.7057 23.8801 17.5353 23.934C16.3616 23.9868 15.9876 24 13 24H12.912C10.0047 24 9.6263 23.9868 8.4647 23.934C7.2943 23.8801 6.4946 23.6942 5.795 23.4225C5.06075 23.1465 4.39555 22.7137 3.8458 22.1542C3.28629 21.6045 2.85346 20.9392 2.5775 20.205C2.3058 19.5054 2.1199 18.7057 2.066 17.5353C2.0143 16.4089 2 16.0184 2 13.3465V12.6535C2 9.9805 2.0143 9.5911 2.066 8.4647C2.1199 7.2943 2.3058 6.4946 2.5775 5.795C2.85346 5.06075 3.28629 4.39555 3.8458 3.8458C4.39555 3.28629 5.06075 2.85346 5.795 2.5775C6.4946 2.3058 7.2943 2.1199 8.4647 2.066C9.5911 2.0143 9.9816 2 12.6535 2H13.3465ZM13.2574 3.9822H12.7426C10.041 3.9822 9.6802 3.9943 8.5549 4.046C7.4824 4.0955 6.9005 4.2737 6.5122 4.4244C5.9985 4.6246 5.6322 4.8622 5.2472 5.2472C4.8622 5.6322 4.6246 5.9985 4.4244 6.5122C4.2737 6.9005 4.0944 7.4824 4.046 8.5549C3.9943 9.6802 3.9822 10.041 3.9822 12.7426V13.2574C3.9822 15.959 3.9943 16.3198 4.046 17.4451C4.0955 18.5176 4.2737 19.0995 4.4244 19.4878C4.6246 20.0004 4.8633 20.3678 5.2472 20.7528C5.6322 21.1378 5.9985 21.3754 6.5122 21.5756C6.9005 21.7263 7.4824 21.9056 8.5549 21.954C9.7143 22.0068 10.0619 22.0178 13 22.0178H13.088C15.9447 22.0178 16.2967 22.0068 17.444 21.954C18.5176 21.9045 19.0995 21.7263 19.4878 21.5756C20.0004 21.3754 20.3678 21.1378 20.7528 20.7528C21.1378 20.3678 21.3754 20.0015 21.5756 19.4878C21.7263 19.0995 21.9056 18.5176 21.954 17.4451C22.0068 16.2846 22.0178 15.9381 22.0178 13V12.912C22.0178 10.0553 22.0068 9.7033 21.954 8.556C21.9045 7.4824 21.7263 6.9005 21.5756 6.5122C21.3993 6.03433 21.1182 5.60206 20.7528 5.2472C20.3979 4.88185 19.9657 4.60069 19.4878 4.4244C19.0995 4.2737 18.5176 4.0944 17.4451 4.046C16.3198 3.9943 15.959 3.9822 13.2574 3.9822ZM13 7.3515C13.7418 7.3515 14.4763 7.4976 15.1616 7.78147C15.8469 8.06533 16.4696 8.4814 16.9941 9.00591C17.5186 9.53042 17.9347 10.1531 18.2185 10.8384C18.5024 11.5237 18.6485 12.2582 18.6485 13C18.6485 13.7418 18.5024 14.4763 18.2185 15.1616C17.9347 15.8469 17.5186 16.4696 16.9941 16.9941C16.4696 17.5186 15.8469 17.9347 15.1616 18.2185C14.4763 18.5024 13.7418 18.6485 13 18.6485C11.5019 18.6485 10.0652 18.0534 9.00591 16.9941C7.94661 15.9348 7.3515 14.4981 7.3515 13C7.3515 11.5019 7.94661 10.0652 9.00591 9.00591C10.0652 7.94661 11.5019 7.3515 13 7.3515ZM13 9.3337C12.0276 9.3337 11.0951 9.71997 10.4075 10.4075C9.71997 11.0951 9.3337 12.0276 9.3337 13C9.3337 13.9724 9.71997 14.9049 10.4075 15.5925C11.0951 16.28 12.0276 16.6663 13 16.6663C13.9724 16.6663 14.9049 16.28 15.5925 15.5925C16.28 14.9049 16.6663 13.9724 16.6663 13C16.6663 12.0276 16.28 11.0951 15.5925 10.4075C14.9049 9.71997 13.9724 9.3337 13 9.3337ZM18.8718 5.8082C19.2219 5.8082 19.5576 5.94727 19.8052 6.19482C20.0527 6.44237 20.1918 6.77811 20.1918 7.1282C20.1918 7.47829 20.0527 7.81403 19.8052 8.06158C19.5576 8.30913 19.2219 8.4482 18.8718 8.4482C18.5217 8.4482 18.186 8.30913 17.9384 8.06158C17.6909 7.81403 17.5518 7.47829 17.5518 7.1282C17.5518 6.77811 17.6909 6.44237 17.9384 6.19482C18.186 5.94727 18.5217 5.8082 18.8718 5.8082Z" fill="#98A2B3"/>
</svg>
