<svg width="24" height="26" viewBox="0 0 24 26" fill="none" xmlns="http://www.w3.org/2000/svg">
<path d="M2 24L3.54641 18.3506C2.59217 16.6969 2.09075 14.8224 2.09167 12.9001C2.09442 6.89047 6.98482 2.00006 12.9936 2.00006C15.9095 2.00098 18.6466 3.13673 20.7055 5.19739C22.7634 7.25805 23.8964 9.99704 23.8955 12.9102C23.8927 18.9208 19.0023 23.8112 12.9936 23.8112C11.1694 23.8103 9.37182 23.3528 7.77957 22.4838L2 24ZM8.04724 20.5103C9.58357 21.4224 11.0502 21.9687 12.9899 21.9696C17.9839 21.9696 22.052 17.9051 22.0548 12.9084C22.0566 7.90155 18.0077 3.84256 12.9972 3.84072C7.99957 3.84072 3.93416 7.90521 3.93233 12.901C3.93141 14.9406 4.52908 16.4678 5.53283 18.0655L4.61708 21.4095L8.04724 20.5103ZM18.4853 15.5016C18.4175 15.3879 18.236 15.3201 17.9628 15.1835C17.6905 15.0469 16.3513 14.3879 16.1011 14.2971C15.8517 14.2064 15.6702 14.1605 15.4878 14.4337C15.3063 14.7059 14.7838 15.3201 14.6252 15.5016C14.4666 15.6831 14.3071 15.706 14.0349 15.5694C13.7626 15.4329 12.8845 15.1459 11.8441 14.2174C11.0346 13.495 10.4874 12.6031 10.3288 12.33C10.1702 12.0577 10.3123 11.9101 10.448 11.7745C10.5708 11.6525 10.7202 11.4564 10.8568 11.2969C10.9952 11.1392 11.0401 11.0255 11.1318 10.8431C11.2226 10.6616 11.1776 10.5021 11.1089 10.3655C11.0401 10.2299 10.4956 8.8888 10.2692 8.34338C10.0474 7.81263 9.82282 7.88413 9.65598 7.87588L9.13348 7.86671C8.95198 7.86671 8.65682 7.93455 8.40749 8.20771C8.15815 8.48088 7.45415 9.13905 7.45415 10.4801C7.45415 11.8212 8.4304 13.1165 8.56607 13.298C8.70265 13.4795 10.4865 16.2313 13.2191 17.411C13.869 17.6915 14.3768 17.8593 14.7719 17.9849C15.4246 18.192 16.0186 18.1627 16.4879 18.093C17.0113 18.0151 18.0994 17.4339 18.3267 16.7978C18.554 16.1607 18.554 15.6153 18.4853 15.5016Z" fill="#98A2B3"/>
</svg>
